<svg width="1509" height="804" viewBox="0 0 1509 804" fill="none" xmlns="http://www.w3.org/2000/svg">
<rect x="214.779" y="192.243" width="271.873" height="271.873" rx="27.1873" transform="rotate(-45 214.779 192.243)" fill="#1A0101"/>
<mask id="mask0_2261_1110" style="mask-type:alpha" maskUnits="userSpaceOnUse" x="226" y="12" width="363" height="363">
<rect x="215.566" y="193.03" width="271.873" height="271.873" rx="27.1873" transform="rotate(-45 215.566 193.03)" fill="#F4F1E8"/>
</mask>
<g mask="url(#mask0_2261_1110)">
<path d="M383.34 176.718H432.277V152.249H440.433V176.718H459.464V217.762C459.464 236.652 444.151 251.965 425.261 251.965H410.528V375.185H402.372V251.965H387.637C368.748 251.965 353.434 236.651 353.434 217.762V176.718H375.184V152.249H383.34V176.718Z" fill="#F4F1E8"/>
</g>
<rect y="404.304" width="271.873" height="271.873" rx="27.1873" transform="rotate(-45 0 404.304)" fill="#5D0D18"/>
<path d="M239.248 427.781C239.248 453.307 218.555 473.999 193.029 473.999C167.504 473.999 146.811 453.307 146.811 427.781C146.811 402.255 193.029 337.122 193.029 337.122C193.029 337.122 239.248 402.255 239.248 427.781Z" fill="#F4F1E8"/>
<rect x="222.935" y="610.928" width="271.873" height="271.873" rx="27.1873" transform="rotate(-45 222.935 610.928)" fill="#9FB2AC"/>
<path d="M356.919 505.684C356.919 505.684 356.412 550.353 369.272 575.062C390.383 615.622 456.21 601.013 466.079 645.659C472.324 673.913 440.432 727.26 440.432 727.26C440.432 727.26 441.632 690.629 430.599 664.649C413.998 625.556 358.481 646.791 340.598 608.268C327.181 579.363 356.919 505.684 356.919 505.684ZM365.669 524.714C365.669 524.714 374.408 540.524 390.137 558.698C418.32 591.262 474.59 572.718 485.294 614.433C491.205 637.472 476.071 674.613 476.03 674.713C476.027 674.612 475.209 645.676 467.621 629.385C450.244 592.079 398.664 611.074 376.544 576.37C361.25 552.375 367.029 534.229 365.669 524.714Z" fill="#F4F1E8"/>
<path d="M596.542 277.661H633.185L719.497 418.53H721.126L719.497 381.073V277.661H749.896V472H717.869L627.213 324.074H625.585L627.213 361.531V472H596.542V277.661ZM907.86 440.244C902.251 450.558 894.289 459.153 883.975 466.029C873.661 472.905 860.995 476.343 845.976 476.343C836.024 476.343 826.795 474.624 818.291 471.186C809.967 467.567 802.729 462.591 796.577 456.257C790.425 449.924 785.63 442.505 782.192 434.001C778.754 425.315 777.035 415.815 777.035 405.501C777.035 395.911 778.663 386.864 781.92 378.359C785.177 369.674 789.701 362.164 795.491 355.831C801.463 349.317 808.61 344.16 816.934 340.36C825.257 336.56 834.486 334.66 844.619 334.66C854.933 334.66 864.071 336.379 872.033 339.817C880.175 343.255 887.051 348.05 892.661 354.202C898.27 360.355 902.522 367.774 905.418 376.459C908.494 385.145 910.032 394.644 910.032 404.959C910.032 405.863 910.032 406.678 910.032 407.401C909.851 408.306 909.76 409.12 909.76 409.844C909.579 410.568 909.489 411.292 909.489 412.016H807.162C807.705 418.349 809.243 423.868 811.777 428.572C814.31 433.277 817.386 437.167 821.005 440.244C824.805 443.32 828.967 445.581 833.491 447.029C838.014 448.477 842.447 449.2 846.79 449.2C855.476 449.2 862.623 447.12 868.233 442.958C873.842 438.796 878.456 433.639 882.075 427.487L907.86 440.244ZM879.904 388.945C879.542 386.23 878.637 383.245 877.19 379.988C875.923 376.55 873.842 373.473 870.947 370.759C868.233 367.864 864.614 365.421 860.09 363.431C855.747 361.44 850.409 360.445 844.076 360.445C835.39 360.445 827.881 363.069 821.548 368.316C815.396 373.383 811.234 380.259 809.062 388.945H879.904ZM1018.27 455.715H1016.64C1012.66 460.962 1007.5 465.757 1001.17 470.1C994.837 474.262 986.785 476.343 977.014 476.343C969.957 476.343 963.352 475.167 957.2 472.814C951.048 470.643 945.71 467.567 941.186 463.586C936.662 459.424 933.043 454.629 930.329 449.2C927.796 443.591 926.529 437.439 926.529 430.744C926.529 423.687 927.886 417.353 930.601 411.744C933.496 406.135 937.386 401.43 942.272 397.63C947.338 393.83 953.31 390.935 960.186 388.945C967.062 386.773 974.481 385.687 982.442 385.687C991.309 385.687 998.728 386.592 1004.7 388.402C1010.67 390.03 1015.19 391.568 1018.27 393.016V387.859C1018.27 383.878 1017.37 380.169 1015.56 376.731C1013.93 373.292 1011.58 370.397 1008.5 368.045C1005.6 365.512 1002.26 363.612 998.456 362.345C994.656 360.897 990.676 360.174 986.514 360.174C979.819 360.174 973.757 361.531 968.328 364.245C963.081 366.778 958.376 370.94 954.214 376.731L930.329 360.988C936.662 352.302 944.534 345.788 953.943 341.446C963.352 336.922 974.028 334.66 985.971 334.66C1005.69 334.66 1020.89 339.546 1031.57 349.317C1042.43 359.088 1047.86 373.021 1047.86 391.116V472H1018.27V455.715ZM1018.27 416.63C1014.29 414.277 1009.86 412.377 1004.97 410.93C1000.08 409.482 994.475 408.758 988.142 408.758C978.733 408.758 971.224 410.93 965.614 415.273C960.005 419.615 957.2 424.863 957.2 431.015C957.2 434.272 957.924 437.167 959.371 439.701C960.819 442.053 962.629 444.134 964.8 445.943C967.152 447.753 969.776 449.11 972.671 450.015C975.747 450.919 978.823 451.372 981.9 451.372C986.785 451.372 991.399 450.467 995.742 448.658C1000.27 446.667 1004.16 444.134 1007.41 441.058C1010.67 437.801 1013.29 434.091 1015.28 429.929C1017.28 425.768 1018.27 421.334 1018.27 416.63ZM1076.2 339.003H1104.7V359.088H1106.33C1107.96 355.65 1110.13 352.483 1112.84 349.588C1115.74 346.512 1118.91 343.979 1122.34 341.988C1125.96 339.817 1129.67 338.188 1133.47 337.103C1137.45 335.836 1141.25 335.203 1144.87 335.203C1149.21 335.203 1152.92 335.565 1156 336.288C1159.08 337.012 1161.88 338.007 1164.41 339.274L1155.73 367.231C1153.74 366.326 1151.48 365.693 1148.94 365.331C1146.59 364.788 1143.7 364.516 1140.26 364.516C1135.37 364.516 1130.85 365.512 1126.69 367.502C1122.71 369.493 1119.18 372.207 1116.1 375.645C1113.03 379.083 1110.58 383.154 1108.77 387.859C1107.14 392.564 1106.33 397.54 1106.33 402.787V472H1076.2V339.003ZM1184.98 277.661H1303.32V306.975H1215.65V362.617H1294.63V391.387H1215.65V472H1184.98V277.661ZM1341.94 315.389C1336.15 315.389 1331.26 313.398 1327.28 309.418C1323.48 305.437 1321.58 300.642 1321.58 295.032C1321.58 289.423 1323.48 284.628 1327.28 280.647C1331.26 276.666 1336.15 274.675 1341.94 274.675C1347.55 274.675 1352.25 276.666 1356.05 280.647C1360.03 284.628 1362.02 289.423 1362.02 295.032C1362.02 300.642 1360.03 305.437 1356.05 309.418C1352.25 313.398 1347.55 315.389 1341.94 315.389ZM1326.74 472V339.003H1356.86V472H1326.74ZM1423.16 404.416L1377.29 339.003H1412.3L1441.08 381.073H1441.89L1468.76 339.003H1505.13L1458.72 404.416L1505.95 472H1470.12L1441.35 428.572H1440.53L1412.03 472H1376.48L1423.16 404.416Z" fill="#1A0101"/>
</svg>
