<svg width="608" height="804" viewBox="0 0 608 804" fill="none" xmlns="http://www.w3.org/2000/svg">
<rect x="214.779" y="192.243" width="271.873" height="271.873" rx="27.1873" transform="rotate(-45 214.779 192.243)" fill="#1A0101"/>
<mask id="mask0_2260_1107" style="mask-type:alpha" maskUnits="userSpaceOnUse" x="226" y="12" width="363" height="363">
<rect x="215.566" y="193.03" width="271.873" height="271.873" rx="27.1873" transform="rotate(-45 215.566 193.03)" fill="#F4F1E8"/>
</mask>
<g mask="url(#mask0_2260_1107)">
<path d="M383.34 176.718H432.277V152.249H440.433V176.718H459.464V217.762C459.464 236.651 444.151 251.965 425.261 251.965H410.528V375.184H402.372V251.965H387.637C368.748 251.965 353.434 236.651 353.434 217.762V176.718H375.184V152.249H383.34V176.718Z" fill="#F4F1E8"/>
</g>
<rect y="404.304" width="271.873" height="271.873" rx="27.1873" transform="rotate(-45 0 404.304)" fill="#5D0D18"/>
<path d="M239.247 427.781C239.247 453.307 218.555 473.999 193.029 473.999C167.503 473.999 146.811 453.307 146.811 427.781C146.811 402.255 193.029 337.122 193.029 337.122C193.029 337.122 239.247 402.255 239.247 427.781Z" fill="#F4F1E8"/>
<rect x="222.935" y="610.927" width="271.873" height="271.873" rx="27.1873" transform="rotate(-45 222.935 610.927)" fill="#9FB2AC"/>
<path d="M356.919 505.684C356.919 505.684 356.412 550.354 369.272 575.063C390.383 615.622 456.21 601.013 466.079 645.659C472.324 673.913 440.432 727.26 440.432 727.26C440.432 727.26 441.632 690.629 430.599 664.65C413.998 625.556 358.481 646.791 340.598 608.268C327.181 579.363 356.919 505.684 356.919 505.684ZM365.669 524.714C365.669 524.714 374.408 540.524 390.137 558.698C418.32 591.262 474.59 572.718 485.294 614.433C491.205 637.472 476.071 674.613 476.03 674.713C476.027 674.612 475.209 645.676 467.621 629.385C450.244 592.079 398.664 611.074 376.544 576.37C361.25 552.376 367.029 534.23 365.669 524.714Z" fill="#F4F1E8"/>
</svg>
